<svg width="30" height="31" viewBox="0 0 30 31" fill="none" xmlns="http://www.w3.org/2000/svg">
<path fill-rule="evenodd" clip-rule="evenodd" d="M14.7619 5.94857C14.6441 5.57034 14.5052 5.20078 14.3458 4.84246C13.7549 3.51384 12.9004 2.38086 11.8581 1.54388C10.8157 0.706907 9.61771 0.191772 8.37014 0.0441077C7.12258 -0.103557 5.86396 0.120807 4.70578 0.697325C3.54761 1.27384 2.52562 2.18472 1.73034 3.34927C0.935062 4.51382 0.391047 5.8961 0.146482 7.37367C-0.0980844 8.85124 -0.0356512 10.3785 0.32825 11.8201C0.690291 13.2544 1.33961 14.5599 2.21914 15.6222C2.2262 15.6307 2.23925 15.6307 2.24633 15.6222C2.25336 15.6138 2.26629 15.6137 2.27341 15.6221L14.3016 29.7118C14.316 29.7287 14.3314 29.7444 14.3474 29.7589C14.3612 29.8461 14.3985 29.9305 14.4593 30.0018C14.6554 30.2318 15.0104 30.2332 15.2082 30.0046L27.6561 15.6233C27.663 15.6154 27.6753 15.6154 27.6822 15.6234C27.6891 15.6314 27.7014 15.6314 27.7083 15.6234C28.6167 14.5608 29.2873 13.2549 29.6611 11.8201C30.0368 10.3785 30.1012 8.85124 29.8488 7.37367C29.5963 5.8961 29.0348 4.51382 28.2138 3.34927C27.3929 2.18472 26.3379 1.27384 25.1424 0.697325C23.9469 0.120807 22.6476 -0.103557 21.3598 0.0441077C20.072 0.191772 18.8354 0.706907 17.7594 1.54388C16.6835 2.38086 15.8014 3.51384 15.1914 4.84246C15.0269 5.20078 14.8835 5.57034 14.7619 5.94857ZM14.7619 9.16086C14.7627 9.16087 14.7635 9.16087 14.7643 9.16087C14.86 9.16087 14.9493 9.13297 15.0238 9.08489C15.1645 8.99692 15.2603 8.8412 15.2697 8.66399C15.3309 7.51992 15.6025 6.40242 16.0682 5.38808C16.6012 4.22732 17.3718 3.23749 18.3118 2.50627C19.2518 1.77504 20.3322 1.325 21.4573 1.19599C22.5824 1.06698 23.7174 1.263 24.7619 1.76667C25.8064 2.27035 26.7281 3.06614 27.4453 4.08355C28.1625 5.10097 28.6531 6.3086 28.8737 7.59948C29.0942 8.89036 29.0379 10.2246 28.7097 11.4841C28.3834 12.7367 27.7982 13.8768 27.0055 14.8047C26.9979 14.8136 26.9979 14.8267 27.0055 14.8356C27.0132 14.8445 27.0131 14.8577 27.0054 14.8666L14.8801 28.8752L2.90599 14.8488C2.90129 14.8433 2.90124 14.8352 2.90586 14.8296C2.91044 14.8241 2.91045 14.8162 2.90588 14.8106C2.13545 13.8817 1.56676 12.7394 1.24992 11.4841C0.931995 10.2246 0.877451 8.89036 1.09112 7.59948C1.30478 6.3086 1.78006 5.10097 2.47486 4.08355C3.16965 3.06614 4.06252 2.27035 5.07436 1.76667C6.08621 1.263 7.1858 1.06698 8.27574 1.19599C9.36568 1.325 10.4123 1.77504 11.323 2.50627C12.2336 3.23749 12.9801 4.22732 13.4964 5.38808C13.9496 6.407 14.2131 7.53002 14.2707 8.67949C14.2715 8.69422 14.2728 8.70879 14.2748 8.72319C14.294 8.96954 14.5049 9.16087 14.7594 9.16087C14.7602 9.16087 14.761 9.16087 14.7619 9.16086Z" fill="white"/>
</svg>
